<!DOCTYPE svg PUBLIC "-//W3C//DTD SVG 20010904//EN" "http://www.w3.org/TR/2001/REC-SVG-20010904/DTD/svg10.dtd">
<svg version="1.0" xmlns="http://www.w3.org/2000/svg" width="270px" height="76px" viewBox="0 0 2700 760" preserveAspectRatio="xMidYMid meet">
<g id="layer101" fill="#f04e4e" stroke="none">
<path d="M452 700 c-11 -12 -73 -90 -138 -175 -66 -85 -122 -154 -126 -154 -5 -1 -8 19 -8 44 l0 45 -80 0 -80 0 0 -155 c0 -94 4 -164 11 -179 18 -38 58 -46 225 -46 l154 0 0 79 0 80 -46 3 -46 3 92 120 c130 168 111 158 171 100 79 -77 109 -122 109 -165 0 -77 -66 -107 -168 -77 l-52 16 0 -78 0 -79 40 -16 c58 -23 180 -21 228 3 103 53 147 164 113 288 -24 88 -122 203 -270 317 -66 51 -100 57 -129 26z"/>
</g>
<g id="layer102" fill="#ffffff" stroke="none">
<path d="M2287 650 c-51 -13 -108 -43 -134 -72 -47 -50 -53 -84 -53 -293 l0 -195 90 0 90 0 0 186 c0 106 4 193 10 204 22 41 134 49 188 14 21 -14 22 -21 22 -124 0 -61 -3 -110 -6 -110 -3 0 -23 13 -44 30 l-37 29 -20 -22 c-31 -35 -66 -88 -60 -93 2 -2 37 -29 77 -59 l74 -55 78 0 c125 0 118 -12 118 211 0 167 -2 194 -19 227 -42 83 -122 123 -251 128 -47 2 -102 -1 -123 -6z"/>
<path d="M998 639 c-16 -9 -18 -33 -18 -267 0 -187 3 -261 12 -270 9 -9 80 -12 259 -12 212 0 250 2 263 16 14 13 16 51 16 264 0 246 0 249 -22 264 -19 13 -61 16 -258 16 -141 0 -242 -5 -252 -11z m352 -269 l0 -140 -100 0 -100 0 0 140 0 140 100 0 100 0 0 -140z"/>
<path d="M1850 440 l0 -210 -130 0 -130 0 0 -70 0 -70 201 0 c119 0 208 4 220 10 18 10 19 24 19 280 l0 270 -90 0 -90 0 0 -210z"/>
</g>


</svg>