<svg xmlns="http://www.w3.org/2000/svg" width="225.228" height="79.82" viewBox="0 0 225.228 79.82">
  <g id="Group_27" data-name="Group 27" transform="translate(-75 -81)">
    <g id="_62_HeaderControl" data-name="62_HeaderControl" transform="translate(55 31.175)">
      <g id="layer101" transform="translate(20 49.825)">
        <path id="Path_1" data-name="Path 1" d="M56.577,104.875c-.931-1.016-6.181-7.62-11.684-14.817-5.588-7.2-10.33-13.039-10.668-13.039-.423-.085-.677,1.609-.677,3.725v3.81H20V71.431c0-7.959.339-13.886.931-15.156,1.524-3.217,4.911-3.895,19.051-3.895H53.021V65.843l-3.895.254-3.895.254,7.79,10.16c11.007,14.225,9.4,13.378,14.479,8.467,6.689-6.52,9.229-10.33,9.229-13.971,0-6.52-5.588-9.06-14.225-6.52l-4.4,1.355V52.549l3.387-1.355c4.911-1.947,15.241-1.778,19.3.254,8.721,4.487,12.446,13.886,9.568,24.385-2.032,7.451-10.33,17.188-22.861,26.84C61.912,106.992,59.033,107.5,56.577,104.875Z" transform="translate(-20 -49.825)" fill="#f04e4e"/>
      </g>
      <g id="layer102" transform="translate(101.283 53.217)">
        <path id="Path_2" data-name="Path 2" d="M2115.833,137.311c-4.318-1.1-9.144-3.641-11.346-6.1-3.979-4.233-4.488-7.112-4.488-24.808V89.9h15.241v15.749c0,8.975.339,16.341.847,17.273,1.863,3.471,11.346,4.149,15.918,1.185,1.778-1.185,1.862-1.778,1.862-10.5,0-5.165-.254-9.314-.508-9.314a18.132,18.132,0,0,0-3.725,2.54l-3.133,2.455-1.693-1.863c-2.625-2.963-5.588-7.451-5.08-7.874.169-.169,3.133-2.455,6.52-5l6.265-4.657h6.6c10.584,0,9.991-1.016,9.991,17.865,0,14.14-.169,16.426-1.609,19.22-3.556,7.028-10.33,10.414-21.252,10.838A50.7,50.7,0,0,1,2115.833,137.311Z" transform="translate(-2005.17 -89.887)" fill="#131f52"/>
        <path id="Path_3" data-name="Path 3" d="M981.524,136.484c-1.355-.762-1.524-2.794-1.524-22.607,0-15.833.254-22.1,1.016-22.861S987.79,90,1002.945,90c17.95,0,21.168.169,22.268,1.355,1.185,1.1,1.355,4.318,1.355,22.353,0,20.829,0,21.083-1.863,22.353-1.609,1.1-5.165,1.355-21.845,1.355C990.922,137.415,982.371,136.992,981.524,136.484Zm29.8-22.776V101.854H994.394v23.708h16.934Z" transform="translate(-980 -89.99)" fill="#131f52"/>
        <path id="Path_4" data-name="Path 4" d="M1612.014,119.634V101.854H1590V90h17.019c10.076,0,17.611.339,18.628.847,1.524.847,1.609,2.032,1.609,23.708v22.861h-15.24Z" transform="translate(-1538.351 -89.99)" fill="#131f52"/>
      </g>
    </g>
    <path id="Path_10" data-name="Path 10" d="M-97.7,0a.522.522,0,0,1-.37-.14.47.47,0,0,1-.15-.36V-6.42a2.529,2.529,0,0,0-.56-1.77,2.311,2.311,0,0,0-1.78-.61h-4.5a.487.487,0,0,1-.36-.14.487.487,0,0,1-.14-.36v-1.62a.487.487,0,0,1,.14-.36.487.487,0,0,1,.36-.14h4.6a6.148,6.148,0,0,1,4.09,1.2,4.725,4.725,0,0,1,1.41,3.8V-.5a.48.48,0,0,1-.15.35.48.48,0,0,1-.35.15Zm-7.36,0a.47.47,0,0,1-.36-.15.5.5,0,0,1-.14-.35V-6.42a.5.5,0,0,1,.14-.35.47.47,0,0,1,.36-.15h2.24a.47.47,0,0,1,.36.15.5.5,0,0,1,.14.35V-.5a.5.5,0,0,1-.14.35.47.47,0,0,1-.36.15ZM-92.6,0a.48.48,0,0,1-.35-.15A.48.48,0,0,1-93.1-.5V-2.12a.47.47,0,0,1,.15-.36.5.5,0,0,1,.35-.14h6.42V-.46a.431.431,0,0,1-.14.33.508.508,0,0,1-.36.13Zm3.98,0a.47.47,0,0,1-.36-.15.5.5,0,0,1-.14-.35l-.3-6.16a5.338,5.338,0,0,0-.16-1.25,1.4,1.4,0,0,0-.48-.77,1.666,1.666,0,0,0-1.02-.26h-1a.48.48,0,0,1-.35-.15.5.5,0,0,1-.15-.37v-1.58a.47.47,0,0,1,.15-.36.5.5,0,0,1,.35-.14H-91a7.442,7.442,0,0,1,2.22.29,3.533,3.533,0,0,1,1.51.9,3.893,3.893,0,0,1,.89,1.54,7.991,7.991,0,0,1,.34,2.19l.28,6.12a.416.416,0,0,1-.13.35.5.5,0,0,1-.37.15Zm5.3,0a.47.47,0,0,1-.36-.15.5.5,0,0,1-.14-.35V-10.92a.487.487,0,0,1,.14-.36.487.487,0,0,1,.36-.14h2.36a.487.487,0,0,1,.36.14.487.487,0,0,1,.14.36V-.5a.5.5,0,0,1-.14.35.47.47,0,0,1-.36.15Zm11.28,0a.522.522,0,0,1-.37-.14.47.47,0,0,1-.15-.36V-6.42a2.529,2.529,0,0,0-.56-1.77A2.311,2.311,0,0,0-74.9-8.8h-3.02a.5.5,0,0,1-.35-.14.47.47,0,0,1-.15-.36v-1.62a.47.47,0,0,1,.15-.36.5.5,0,0,1,.35-.14h3.12a8.29,8.29,0,0,1,3.02.48,3.607,3.607,0,0,1,1.85,1.55,5.591,5.591,0,0,1,.63,2.85V-.5a.48.48,0,0,1-.15.35A.48.48,0,0,1-69.8,0Zm5.56,0a.47.47,0,0,1-.36-.15.5.5,0,0,1-.14-.35V-10.92a.487.487,0,0,1,.14-.36.487.487,0,0,1,.36-.14h2.36a.487.487,0,0,1,.36.14.487.487,0,0,1,.14.36V-.5a.5.5,0,0,1-.14.35.47.47,0,0,1-.36.15Zm5.8,3.82a.487.487,0,0,1-.36-.14.487.487,0,0,1-.14-.36V-6.42a.5.5,0,0,1,.14-.35.47.47,0,0,1,.36-.15h2.16a.47.47,0,0,1,.36.15.5.5,0,0,1,.14.35V3.32a.487.487,0,0,1-.14.36.487.487,0,0,1-.36.14ZM-55.94.24a.324.324,0,0,1-.35-.12.549.549,0,0,1-.17-.38V-2.2a.586.586,0,0,1,.14-.36.787.787,0,0,1,.36-.26l.64-.26a4.563,4.563,0,0,0,1.03-.61,2.572,2.572,0,0,0,.75-1,3.986,3.986,0,0,0,.28-1.61,3.924,3.924,0,0,0-.2-1.38,1.364,1.364,0,0,0-.68-.76,2.993,2.993,0,0,0-1.32-.24h-5.22a.5.5,0,0,1-.35-.14.47.47,0,0,1-.15-.36v-1.76a.448.448,0,0,1,.15-.34.5.5,0,0,1,.35-.14h5.88a6.129,6.129,0,0,1,2.87.57,3.308,3.308,0,0,1,1.54,1.7,7.222,7.222,0,0,1,.47,2.77,6.4,6.4,0,0,1-.43,2.42,5.946,5.946,0,0,1-1.17,1.85A6.953,6.953,0,0,1-53.18-.8a9.212,9.212,0,0,1-1.94.82ZM-38.08,0a.522.522,0,0,1-.37-.14A.47.47,0,0,1-38.6-.5V-6.42a2.529,2.529,0,0,0-.56-1.77,2.311,2.311,0,0,0-1.78-.61h-3.02a.5.5,0,0,1-.35-.14.47.47,0,0,1-.15-.36v-1.62a.47.47,0,0,1,.15-.36.5.5,0,0,1,.35-.14h3.12a8.291,8.291,0,0,1,3.02.48,3.607,3.607,0,0,1,1.85,1.55,5.591,5.591,0,0,1,.63,2.85V-.5a.48.48,0,0,1-.15.35.48.48,0,0,1-.35.15Zm7.58-8.68v.8a2.433,2.433,0,0,0,.15.67.568.568,0,0,0,.37.35l.56.2a.465.465,0,0,1,.25.23.779.779,0,0,1,.09.37l.02.98a.51.51,0,0,1-.26.46.993.993,0,0,1-.64.12l-.82-.12a2.616,2.616,0,0,1-1.2-.56,2.952,2.952,0,0,1-.85-1.19,4.558,4.558,0,0,1-.31-1.75v-2.8a.59.59,0,0,1,.15-.36.455.455,0,0,1,.35-.14h4a6.045,6.045,0,0,1,2.94.63A3.988,3.988,0,0,1-24-9.01a6.731,6.731,0,0,1,.62,2.71q.02.3.02.59t-.02.59A6.761,6.761,0,0,1-24-2.42,3.977,3.977,0,0,1-25.7-.63,6.045,6.045,0,0,1-28.64,0H-32.4a.47.47,0,0,1-.36-.15A.5.5,0,0,1-32.9-.5V-2.24a.487.487,0,0,1,.14-.36.487.487,0,0,1,.36-.14h3.66a2.419,2.419,0,0,0,1.71-.62,2.466,2.466,0,0,0,.73-1.76q.02-.3.02-.59t-.02-.59a2.372,2.372,0,0,0-.72-1.77,2.479,2.479,0,0,0-1.72-.61ZM-15.52,0a.522.522,0,0,1-.37-.14.47.47,0,0,1-.15-.36V-6.42a2.529,2.529,0,0,0-.56-1.77,2.311,2.311,0,0,0-1.78-.61H-21.4a.5.5,0,0,1-.35-.14.47.47,0,0,1-.15-.36v-1.62a.47.47,0,0,1,.15-.36.5.5,0,0,1,.35-.14h3.12a8.291,8.291,0,0,1,3.02.48,3.607,3.607,0,0,1,1.85,1.55,5.591,5.591,0,0,1,.63,2.85V-.5a.48.48,0,0,1-.15.35.48.48,0,0,1-.35.15Zm7.58-8.68v.8a2.433,2.433,0,0,0,.15.67.568.568,0,0,0,.37.35l.56.2a.465.465,0,0,1,.25.23.779.779,0,0,1,.09.37l.02.98a.51.51,0,0,1-.26.46.993.993,0,0,1-.64.12l-.82-.12a2.616,2.616,0,0,1-1.2-.56,2.952,2.952,0,0,1-.85-1.19,4.558,4.558,0,0,1-.31-1.75v-2.8a.59.59,0,0,1,.15-.36.455.455,0,0,1,.35-.14h4a6.045,6.045,0,0,1,2.94.63,3.988,3.988,0,0,1,1.7,1.78A6.731,6.731,0,0,1-.82-6.3q.02.3.02.59t-.02.59a6.761,6.761,0,0,1-.62,2.7A3.977,3.977,0,0,1-3.14-.63,6.045,6.045,0,0,1-6.08,0H-9.84a.47.47,0,0,1-.36-.15.5.5,0,0,1-.14-.35V-2.24a.487.487,0,0,1,.14-.36.487.487,0,0,1,.36-.14h3.66a2.419,2.419,0,0,0,1.71-.62,2.466,2.466,0,0,0,.73-1.76q.02-.3.02-.59t-.02-.59a2.372,2.372,0,0,0-.72-1.77,2.479,2.479,0,0,0-1.72-.61Z" transform="translate(182 157)" fill="#131f52"/>
  </g>
</svg>
