<svg xmlns="http://www.w3.org/2000/svg" width="85" height="30" viewBox="0 0 131.194 46.292">
  <g id="Group_28" data-name="Group 28" transform="translate(-122 -21)">
    <g id="_62_HeaderControl" data-name="62_HeaderControl" transform="translate(102 -28.825)">
      <g id="layer101" transform="translate(20 49.825)">
        <path id="Path_1" data-name="Path 1" d="M41.306,81.892c-.543-.592-3.6-4.439-6.806-8.631a94.057,94.057,0,0,0-6.214-7.6c-.247-.049-.395.937-.395,2.17v2.219H20V62.41c0-4.636.2-8.088.543-8.828.888-1.874,2.861-2.269,11.1-2.269h7.6v7.842l-2.269.148-2.269.148,4.537,5.918c6.412,8.286,5.474,7.793,8.434,4.932,3.9-3.8,5.376-6.017,5.376-8.138,0-3.8-3.255-5.277-8.286-3.8l-2.565.789V51.412l1.973-.789c2.861-1.134,8.878-1.036,11.245.148,5.08,2.614,7.25,8.088,5.573,14.2-1.184,4.34-6.017,10.012-13.316,15.634C44.413,83.125,42.736,83.421,41.306,81.892Z" transform="translate(-20 -49.825)" fill="#f04e4e"/>
      </g>
      <g id="layer102" transform="translate(67.347 51.801)">
        <path id="Path_2" data-name="Path 2" d="M2109.223,117.511a14.841,14.841,0,0,1-6.609-3.551c-2.318-2.466-2.614-4.143-2.614-14.451V89.892h8.878v9.173c0,5.228.2,9.519.493,10.061,1.085,2.022,6.609,2.417,9.272.69,1.036-.69,1.085-1.036,1.085-6.116a26.263,26.263,0,0,0-.3-5.425,10.56,10.56,0,0,0-2.17,1.48l-1.825,1.43-.987-1.085c-1.529-1.726-3.255-4.34-2.959-4.587.1-.1,1.825-1.43,3.8-2.91l3.65-2.713h3.847c6.165,0,5.82-.592,5.82,10.406,0,8.236-.1,9.568-.937,11.2-2.071,4.094-6.017,6.066-12.379,6.313A29.534,29.534,0,0,1,2109.223,117.511Z" transform="translate(-2044.762 -89.887)" fill="#fff"/>
        <path id="Path_3" data-name="Path 3" d="M980.888,117.077c-.789-.444-.888-1.628-.888-13.168,0-9.223.148-12.872.592-13.316S984.537,90,993.366,90c10.456,0,12.33.1,12.971.789.69.641.789,2.515.789,13.02,0,12.133,0,12.281-1.085,13.02-.937.641-3.008.789-12.724.789C986.362,117.619,981.381,117.372,980.888,117.077Zm17.361-13.267V96.9h-9.864v13.81h9.864Z" transform="translate(-980 -89.994)" fill="#fff"/>
        <path id="Path_4" data-name="Path 4" d="M1602.823,107.262V96.9H1590V90h9.913c5.869,0,10.259.2,10.85.493.888.493.937,1.184.937,13.81v13.316h-8.877Z" transform="translate(-1559.915 -89.994)" fill="#fff"/>
      </g>
    </g>
    <path id="Path_11" data-name="Path 11" d="M-58.62,0a.313.313,0,0,1-.222-.084.282.282,0,0,1-.09-.216V-3.852a1.517,1.517,0,0,0-.336-1.062,1.386,1.386,0,0,0-1.068-.366h-2.7a.292.292,0,0,1-.216-.084.292.292,0,0,1-.084-.216v-.972a.292.292,0,0,1,.084-.216.292.292,0,0,1,.216-.084h2.76a3.689,3.689,0,0,1,2.454.72,2.835,2.835,0,0,1,.846,2.28V-.3a.288.288,0,0,1-.09.21.288.288,0,0,1-.21.09Zm-4.416,0a.282.282,0,0,1-.216-.09.3.3,0,0,1-.084-.21V-3.852a.3.3,0,0,1,.084-.21.282.282,0,0,1,.216-.09h1.344a.282.282,0,0,1,.216.09.3.3,0,0,1,.084.21V-.3a.3.3,0,0,1-.084.21.282.282,0,0,1-.216.09Zm7.476,0a.288.288,0,0,1-.21-.09.288.288,0,0,1-.09-.21v-.972a.282.282,0,0,1,.09-.216.3.3,0,0,1,.21-.084h3.852v1.3a.258.258,0,0,1-.084.2A.3.3,0,0,1-52.008,0Zm2.388,0a.282.282,0,0,1-.216-.09.3.3,0,0,1-.084-.21l-.18-3.7a3.2,3.2,0,0,0-.1-.75.838.838,0,0,0-.288-.462,1,1,0,0,0-.612-.156h-.6a.288.288,0,0,1-.21-.09.3.3,0,0,1-.09-.222v-.948a.282.282,0,0,1,.09-.216.3.3,0,0,1,.21-.084h.648a4.465,4.465,0,0,1,1.332.174,2.12,2.12,0,0,1,.906.54,2.336,2.336,0,0,1,.534.924,4.8,4.8,0,0,1,.2,1.314L-51.456-.3a.25.25,0,0,1-.078.21.3.3,0,0,1-.222.09Zm3.18,0a.282.282,0,0,1-.216-.09.3.3,0,0,1-.084-.21V-6.552a.292.292,0,0,1,.084-.216.292.292,0,0,1,.216-.084h1.416a.292.292,0,0,1,.216.084.292.292,0,0,1,.084.216V-.3a.3.3,0,0,1-.084.21.282.282,0,0,1-.216.09Zm6.768,0a.313.313,0,0,1-.222-.084.282.282,0,0,1-.09-.216V-3.852a1.517,1.517,0,0,0-.336-1.062A1.386,1.386,0,0,0-44.94-5.28h-1.812a.3.3,0,0,1-.21-.084.282.282,0,0,1-.09-.216v-.972a.282.282,0,0,1,.09-.216.3.3,0,0,1,.21-.084h1.872a4.974,4.974,0,0,1,1.812.288,2.164,2.164,0,0,1,1.11.93,3.354,3.354,0,0,1,.378,1.71V-.3a.288.288,0,0,1-.09.21.288.288,0,0,1-.21.09Zm3.336,0A.282.282,0,0,1-40.1-.09a.3.3,0,0,1-.084-.21V-6.552a.292.292,0,0,1,.084-.216.292.292,0,0,1,.216-.084h1.416a.292.292,0,0,1,.216.084.292.292,0,0,1,.084.216V-.3a.3.3,0,0,1-.084.21.282.282,0,0,1-.216.09Zm3.48,2.292a.292.292,0,0,1-.216-.084.292.292,0,0,1-.084-.216V-3.852a.3.3,0,0,1,.084-.21.282.282,0,0,1,.216-.09h1.3a.282.282,0,0,1,.216.09.3.3,0,0,1,.084.21V1.992a.292.292,0,0,1-.084.216.292.292,0,0,1-.216.084ZM-33.564.144a.194.194,0,0,1-.21-.072.329.329,0,0,1-.1-.228V-1.32a.351.351,0,0,1,.084-.216.472.472,0,0,1,.216-.156l.384-.156a2.738,2.738,0,0,0,.618-.366,1.543,1.543,0,0,0,.45-.6,2.392,2.392,0,0,0,.168-.966,2.355,2.355,0,0,0-.12-.828.819.819,0,0,0-.408-.456,1.8,1.8,0,0,0-.792-.144h-3.132a.3.3,0,0,1-.21-.084.282.282,0,0,1-.09-.216V-6.564a.269.269,0,0,1,.09-.2.3.3,0,0,1,.21-.084h3.528a3.677,3.677,0,0,1,1.722.342,1.985,1.985,0,0,1,.924,1.02,4.333,4.333,0,0,1,.282,1.662,3.837,3.837,0,0,1-.258,1.452,3.567,3.567,0,0,1-.7,1.11,4.171,4.171,0,0,1-1,.786,5.527,5.527,0,0,1-1.164.492ZM-22.848,0a.313.313,0,0,1-.222-.084A.282.282,0,0,1-23.16-.3V-3.852A1.517,1.517,0,0,0-23.5-4.914a1.386,1.386,0,0,0-1.068-.366h-1.812a.3.3,0,0,1-.21-.084.282.282,0,0,1-.09-.216v-.972a.282.282,0,0,1,.09-.216.3.3,0,0,1,.21-.084H-24.5a4.974,4.974,0,0,1,1.812.288,2.164,2.164,0,0,1,1.11.93,3.355,3.355,0,0,1,.378,1.71V-.3a.288.288,0,0,1-.09.21A.288.288,0,0,1-21.5,0ZM-18.3-5.208v.48a1.46,1.46,0,0,0,.09.4.341.341,0,0,0,.222.21l.336.12a.279.279,0,0,1,.15.138.467.467,0,0,1,.054.222l.012.588a.306.306,0,0,1-.156.276.6.6,0,0,1-.384.072l-.492-.072a1.569,1.569,0,0,1-.72-.336,1.771,1.771,0,0,1-.51-.714,2.735,2.735,0,0,1-.186-1.05v-1.68a.354.354,0,0,1,.09-.216.273.273,0,0,1,.21-.084h2.4a3.627,3.627,0,0,1,1.764.378A2.393,2.393,0,0,1-14.4-5.406a4.038,4.038,0,0,1,.372,1.626q.012.18.012.354t-.012.354a4.057,4.057,0,0,1-.372,1.62A2.386,2.386,0,0,1-15.42-.378,3.627,3.627,0,0,1-17.184,0H-19.44a.282.282,0,0,1-.216-.09A.3.3,0,0,1-19.74-.3V-1.344a.292.292,0,0,1,.084-.216.292.292,0,0,1,.216-.084h2.2a1.451,1.451,0,0,0,1.026-.372,1.48,1.48,0,0,0,.438-1.056q.012-.18.012-.354t-.012-.354a1.423,1.423,0,0,0-.432-1.062,1.487,1.487,0,0,0-1.032-.366ZM-9.312,0a.313.313,0,0,1-.222-.084A.282.282,0,0,1-9.624-.3V-3.852A1.517,1.517,0,0,0-9.96-4.914a1.386,1.386,0,0,0-1.068-.366H-12.84a.3.3,0,0,1-.21-.084.282.282,0,0,1-.09-.216v-.972a.282.282,0,0,1,.09-.216.3.3,0,0,1,.21-.084h1.872a4.974,4.974,0,0,1,1.812.288,2.164,2.164,0,0,1,1.11.93,3.355,3.355,0,0,1,.378,1.71V-.3a.288.288,0,0,1-.09.21.288.288,0,0,1-.21.09Zm4.548-5.208v.48a1.46,1.46,0,0,0,.09.4.341.341,0,0,0,.222.21l.336.12a.279.279,0,0,1,.15.138.467.467,0,0,1,.054.222l.012.588a.306.306,0,0,1-.156.276A.6.6,0,0,1-4.44-2.7l-.492-.072a1.569,1.569,0,0,1-.72-.336,1.771,1.771,0,0,1-.51-.714,2.735,2.735,0,0,1-.186-1.05v-1.68a.354.354,0,0,1,.09-.216.273.273,0,0,1,.21-.084h2.4a3.627,3.627,0,0,1,1.764.378A2.393,2.393,0,0,1-.864-5.406,4.038,4.038,0,0,1-.492-3.78q.012.18.012.354t-.012.354a4.057,4.057,0,0,1-.372,1.62A2.386,2.386,0,0,1-1.884-.378,3.627,3.627,0,0,1-3.648,0H-5.9A.282.282,0,0,1-6.12-.09.3.3,0,0,1-6.2-.3V-1.344A.292.292,0,0,1-6.12-1.56.292.292,0,0,1-5.9-1.644h2.2a1.451,1.451,0,0,0,1.026-.372,1.48,1.48,0,0,0,.438-1.056q.012-.18.012-.354t-.012-.354a1.423,1.423,0,0,0-.432-1.062,1.487,1.487,0,0,0-1.032-.366Z" transform="translate(186 65)" fill="#fff"/>
  </g>
</svg>
