<svg id="Icon_ionic-ios-checkmark-circle-outline" data-name="Icon ionic-ios-checkmark-circle-outline" xmlns="http://www.w3.org/2000/svg" width="58.5" height="58.5" viewBox="0 0 58.5 58.5">
  <path id="Path_8" data-name="Path 8" d="M50.991,27.127l-2.475-2.545a.532.532,0,0,0-.394-.169h0a.511.511,0,0,0-.394.169L30.572,41.864,24.328,35.62a.544.544,0,0,0-.787,0l-2.5,2.5a.56.56,0,0,0,0,.8L28.913,46.8a2.49,2.49,0,0,0,1.645.8,2.61,2.61,0,0,0,1.631-.773H32.2L51,27.928A.6.6,0,0,0,50.991,27.127Z" transform="translate(-6.75 -6.75)" fill="#27cb00"/>
  <path id="Path_9" data-name="Path 9" d="M36,10.688A25.3,25.3,0,1,1,18.1,18.1,25.145,25.145,0,0,1,36,10.688M36,6.75A29.25,29.25,0,1,0,65.25,36,29.246,29.246,0,0,0,36,6.75Z" transform="translate(-6.75 -6.75)" fill="#27cb00"/>
</svg>
